<?xml version="1.0" encoding="UTF-8"?>
<svg width="658px" height="175px" viewBox="0 0 658 175" version="1.1" xmlns="http://www.w3.org/2000/svg" xmlns:xlink="http://www.w3.org/1999/xlink">
    <!-- Generator: Sketch 61.2 (89653) - https://sketch.com -->
    <title>Group Copy</title>
    <desc>Created with Sketch.</desc>
    <g id="Page-1" stroke="none" stroke-width="1" fill="none" fill-rule="evenodd">
        <g id="Group-Copy" fill="#FFFFFF">
            <path d="M135.685289,0.112453512 L138.228206,34.2708529 L138.665388,34.4276868 C153.027545,39.6283097 164.626626,49.1837552 171.474969,61.751957 L171.782978,62.3253092 L171.864,62.4812528 L188.96432,59.90384 L194.328368,88.2508752 L177.459186,97.1796386 L177.426812,97.385523 C175.526136,109.08982 170.081067,120.420596 161.757142,130.083282 L161.264184,130.649742 L161.256878,130.657565 L162.795817,151.221148 L146.507029,157.149782 L140.988618,147.06403 L140.530313,147.32398 C137.161415,149.209341 133.635886,150.870803 129.975953,152.292601 L128.974474,152.67441 L128.263589,152.936728 C123.970058,154.499446 119.602428,155.69916 115.20337,156.532564 L114.187665,156.718384 L113.779041,156.788245 L116.068994,168.22832 L99.7800671,174.157005 L87.3456608,156.863094 L86.9197342,156.789974 C64.6977207,152.861125 46.7837878,139.321683 39.2301979,119.97971 L39.0044787,119.391817 L38.7784578,118.782049 C37.3073233,114.74014 36.3402632,110.624624 35.8463137,106.489828 L31.8430331,101.546395 L30.2266645,117.369524 L18.1534615,94.7397449 L19.618967,127.092525 L0.782744244,91.4798722 L14.2582766,111.104074 L12.5999663,74.4909214 L27.1627493,101.787476 L28.3767723,89.9061081 L35.4683715,98.6642363 C35.7254596,86.8435457 39.6849017,75.1449005 46.624662,64.8351533 C48.0877337,65.5198751 49.6214454,66.0479113 51.2008609,66.4083597 C43.1103315,77.9603148 39.1031145,91.4315843 40.3495773,104.691857 L40.4564628,104.823283 L40.3689902,104.894027 C40.7749791,109.03484 41.6940247,113.154014 43.1617835,117.186649 C49.9063869,135.717294 66.9769148,148.734483 88.3902492,152.311027 L89.0404612,152.416513 L90.002535,152.567999 L101.505507,168.566692 L110.708848,165.21695 L108.243382,152.894813 L110.691822,152.551453 C116.072453,151.796896 121.427053,150.462781 126.668755,148.554957 C131.275969,146.878069 135.665502,144.805447 139.789785,142.371564 L140.669482,141.844501 L142.755819,140.575528 L148.676668,151.397793 L157.880008,148.048051 L156.45698,129.024726 L157.126586,128.283521 C165.676981,118.818859 171.183291,107.566534 172.921421,96.0076757 L173.015776,95.3530833 L173.179003,94.1695608 L189.105376,85.7386962 L185.216331,65.1844809 L169.196053,67.5991711 L168.446815,66.0571748 C162.177866,53.1551292 150.566855,43.3966674 135.90733,38.4015202 L135.286106,38.1932969 L133.806744,37.7056276 L131.979032,13.1632757 L116.287382,34.7961811 L115.064337,34.7684515 C105.708704,34.556335 96.1740141,36.1294138 86.968675,39.4798833 C84.1590647,40.5024978 81.4493796,41.6652459 78.8471044,42.9545122 C78.7513412,41.3613233 78.4837246,39.7579674 78.0337826,38.1689042 C80.4012373,37.0428178 82.85007,36.0166896 85.3738407,35.0981122 C94.2215923,31.877794 103.367433,30.2059864 112.409372,30.0925617 L113.344358,30.0863875 L113.940831,30.0879473 L135.685289,0.112453512 Z M98.2589857,49.4012238 C98.6680346,50.9579431 97.7372454,52.5517109 96.1800096,52.9610037 C88.1591093,55.0691604 81.1619863,58.4206018 75.1656697,63.0152062 C69.2724225,67.5308349 64.9852593,73.1862658 62.2684061,80.0259362 C61.6741245,81.5220385 59.9793137,82.2535161 58.4829402,81.6597371 C56.9865667,81.0659581 56.2552768,79.3717745 56.8495584,77.8756722 C59.9561912,70.0547325 64.8914243,63.5443973 71.6194837,58.3891039 C78.2444737,53.3127862 85.9452069,49.6243336 94.6987122,47.3236243 C96.255948,46.9143314 97.8499367,47.8445044 98.2589857,49.4012238 Z M125.983785,51.6841955 C128.847929,50.6417322 132.059023,52.2398321 133.155963,55.2536515 C134.252904,58.267471 132.820302,61.5557378 129.956158,62.598201 C127.092014,63.6406643 123.88092,62.0425644 122.783979,59.028745 C121.687039,56.0149256 123.11964,52.7266588 125.983785,51.6841955 Z" id="Combined-Shape" fill-rule="nonzero"></path>
            <path d="M52.0131492,23.2535074 C56.6244628,23.2535074 60.7992237,25.1051609 63.8211562,28.0988794 C64.648104,28.9181065 65.3887238,29.8228555 66.0283379,30.7985856 C66.1498594,30.8759228 66.2728937,30.9546941 66.3964983,31.03449 C69.6674358,35.9106714 71.3029045,39.8715156 71.3029045,42.9170227 C71.3029045,47.4852832 69.4279269,51.6210669 66.3964983,54.6147855 C63.3650696,57.6085041 59.1771899,59.4601575 54.5513857,59.4601575 C49.9255815,59.4601575 45.7377017,57.6085041 42.7062731,54.6147855 C41.4199713,53.344485 40.2155744,51.8993904 39.0930824,50.2795019 C36.7313232,47.4244969 35.3141056,43.7745288 35.3141056,39.7966423 C35.3141056,35.2283817 37.1832097,31.092598 40.2051422,28.0988794 C43.2270747,25.1051609 47.4018357,23.2535074 52.0131492,23.2535074 Z M51.9844031,25.3911273 C44.5027549,25.3911273 38.3840683,31.2294148 37.9316426,38.6006586 C37.8986032,38.9952676 37.8814426,39.3939696 37.8814426,39.7966423 C37.8814426,40.8007567 37.9881502,41.7801809 38.1909441,42.724393 L38.2355957,42.5266841 C39.6282911,48.8403388 45.2550197,53.5635946 51.9844031,53.5635946 C59.7603436,53.5635946 66.0639889,47.256973 66.0639889,39.477361 C66.0639889,31.6977489 59.7603436,25.3911273 51.9844031,25.3911273 Z M52.6680137,28.9011044 L52.6680137,30.5783489 L52.9780189,30.6183091 C53.9969375,30.7735293 54.8715334,31.1489456 55.6018064,31.744558 C56.4051068,32.3997317 57.0075821,33.312607 57.4092323,34.4831839 L57.4092323,34.4831839 L54.1611046,35.9507729 L54.1404077,35.9085506 C54.0765921,35.7765452 53.9437867,35.4892395 53.7419914,35.0466333 C53.5149717,34.5487013 53.2399286,34.1861719 52.9168622,33.959045 C52.5937957,33.7319181 52.2052428,33.6183547 51.7512034,33.6183547 C51.2273119,33.6183547 50.8343932,33.7406538 50.5724474,33.9852519 C50.3105016,34.2298501 50.1795287,34.5530691 50.1795287,34.954909 C50.1795287,35.3392775 50.2930386,35.6843356 50.5200583,35.9900833 C50.7470779,36.295831 51.0352183,36.5535327 51.3844793,36.7631882 L51.3844793,36.7631882 L54.5540233,38.5976745 L54.8467745,38.7710281 C56.0866957,39.527152 56.9539456,40.3473001 57.4485242,41.2314726 C57.9811473,42.1836583 58.2474588,43.1140049 58.2474588,44.0225124 C58.2474588,44.9834337 58.0073419,45.8613664 57.5271079,46.6563105 C57.046874,47.4512545 56.383278,48.0976925 55.53632,48.5956245 C54.689362,49.0935565 53.7332599,49.3862007 52.6680137,49.4735572 L52.6680137,49.4735572 L52.6680137,51.019767 L50.8343932,51.019767 L50.8343932,49.4211433 L50.5153287,49.3621777 C49.3600993,49.1219473 48.3662818,48.6174636 47.5338763,47.8487265 C46.6257976,47.0101043 45.9360071,45.9443551 45.4645047,44.6514791 L45.4645047,44.6514791 L48.7126324,43.1314762 L49.0007727,43.6032012 L49.2105966,43.9462983 C49.6307791,44.6148428 50.054169,45.1774899 50.4807664,45.6342396 C50.9784634,46.1671141 51.5678414,46.4335514 52.2489004,46.4335514 C52.7204028,46.4335514 53.1438819,46.2894132 53.5193375,46.0011368 C53.8947931,45.7128604 54.0825209,45.3328597 54.0825209,44.8611347 C54.0825209,44.4068809 53.9166219,43.956995 53.5848239,43.5114769 C53.2530259,43.0659588 52.8513757,42.7121651 52.3798733,42.4500956 L52.3798733,42.4500956 L49.3413022,40.6418163 L49.0845954,40.4829393 C47.0728518,39.1988409 46.06698,37.6007623 46.06698,35.6887034 C46.06698,34.3608848 46.507922,33.2339861 47.3898062,32.3080074 C48.2716903,31.3820286 49.419886,30.8229471 50.8343932,30.6307628 L50.8343932,30.6307628 L50.8343932,28.9011044 L52.6680137,28.9011044 Z" id="Combined-Shape" transform="translate(53.308505, 41.356832) rotate(-20.000000) translate(-53.308505, -41.356832) "></path>
            <path d="M247.573047,106.697785 C251.093047,102.617785 251.493047,98.9377848 248.453047,96.7777848 C243.973047,93.5777848 233.733047,89.3377848 233.973047,84.1377848 C234.373047,74.1377848 254.053047,61.8977848 256.773047,64.6977848 C258.693047,66.6977848 252.693047,73.3377848 251.013047,77.1777848 C249.333047,80.9377848 250.293047,83.4177848 251.813047,84.9377848 C252.693047,85.8177848 253.173047,85.4177848 253.573047,84.6977848 C254.693047,82.6977848 257.013047,78.6177848 259.093047,75.8177848 C260.293047,74.1377848 262.213047,71.0177848 261.413047,67.8177848 C260.853047,65.5777848 259.413047,62.9377848 257.413047,61.0977848 C254.773047,58.6977848 250.933047,59.3377848 247.093047,60.9377848 C239.973047,63.9777848 227.573047,73.3377848 227.573047,84.2977848 C227.573047,92.5377848 240.213047,97.4977848 244.453047,101.097785 C245.573047,102.057785 245.973047,103.737785 244.613047,105.257785 C243.573047,106.137785 241.893047,106.697785 239.653047,106.697785 C234.453047,106.697785 229.013047,102.537785 225.813047,99.9777848 C223.653047,98.2177848 220.373047,97.4977848 217.733047,98.2977848 C217.013047,98.5377848 216.693047,99.0977848 217.573047,100.137785 C228.853047,113.737785 242.773047,112.217785 247.573047,106.697785 Z M278.213047,110.457785 C282.933047,110.457785 287.893047,106.377785 290.213047,101.897785 C291.333047,99.6577848 291.253047,97.4977848 290.933047,96.8577848 C290.613047,96.1377848 289.893047,96.2177848 289.493047,96.9377848 C286.373047,102.537785 282.293047,107.817785 278.933047,107.977785 C276.053047,108.137785 275.733047,104.777785 277.813047,100.217785 C279.653047,96.1377848 283.653047,90.1377848 285.413047,86.5377848 C287.333047,82.5377848 286.693047,79.0177848 285.493047,77.5777848 C284.853047,76.7777848 284.293047,76.9377848 283.493047,78.0577848 C280.933047,81.4977848 278.613047,87.0177848 273.573047,95.1777848 C269.253047,102.137785 264.853047,107.737785 261.733047,107.497785 C259.893047,107.337785 259.653047,104.457785 261.333047,100.537785 C263.013047,96.6977848 264.613047,93.4977848 267.573047,88.7777848 C270.453047,84.2177848 270.853047,80.6177848 269.093047,77.9777848 C268.453047,77.2577848 267.653047,77.1777848 267.013047,78.0577848 C261.813047,85.3377848 257.733047,93.1777848 255.973047,98.4577848 C254.213047,103.737785 254.373047,109.657785 260.053047,110.057785 C264.533047,110.377785 268.773047,106.297785 271.573047,102.537785 C270.933047,107.177785 273.013047,110.457785 278.213047,110.457785 Z M280.693047,126.457785 C284.533047,117.577785 288.613047,109.417785 292.373047,102.537785 C292.613047,104.537785 293.413047,106.377785 295.093047,107.897785 C297.893047,110.457785 301.253047,111.177785 306.373047,110.857785 C312.133047,110.457785 317.573047,107.817785 320.613047,102.297785 C321.973047,99.8177848 321.813047,97.7377848 321.653047,97.0177848 C321.493047,96.2177848 320.613047,95.8977848 320.133047,97.0177848 C317.573047,102.457785 312.773047,108.217785 304.933047,108.697785 C307.973047,106.857785 310.933047,103.017785 313.333047,97.7377848 C316.293047,91.1777848 318.053047,84.0577848 314.213047,79.9777848 C310.773047,76.3777848 306.053047,78.6177848 302.533047,81.6577848 C302.613047,80.2977848 302.453047,79.0977848 302.053047,78.0577848 C301.653047,77.0977848 300.933047,76.9377848 300.133047,77.9777848 C295.093047,84.6977848 281.653047,110.057785 279.253047,117.817785 C277.733047,122.697785 278.133047,124.937785 279.333047,126.617785 C279.813047,127.337785 280.373047,127.177785 280.693047,126.457785 Z M296.693047,106.217785 C294.453047,104.377785 294.853047,99.5777848 296.853047,94.5377848 C297.813047,92.8577848 298.693047,91.4177848 299.573047,89.9777848 C303.333047,83.8177848 308.293047,79.8177848 310.213047,80.7777848 C312.213047,81.7377848 311.333047,88.3777848 308.213047,94.7777848 C304.453047,102.457785 299.253047,108.297785 296.693047,106.217785 Z M372.693047,101.977785 C373.653047,99.7377848 373.493047,97.6577848 373.093047,96.7777848 C372.773047,96.0577848 372.213047,96.2177848 371.893047,96.8577848 C369.333047,102.777785 365.253047,108.057785 361.893047,107.897785 C359.493047,107.817785 358.533047,104.617785 359.893047,100.217785 C361.253047,95.8977848 365.333047,90.4577848 369.093047,86.2977848 C371.493047,83.6577848 369.493047,79.8177848 367.893047,78.0577848 C367.333047,77.2577848 366.613047,77.6577848 365.653047,78.2977848 C362.533047,80.3777848 359.733047,81.6577848 356.933047,82.0577848 C358.933047,76.8577848 359.733047,71.9777848 357.253047,72.0577848 C353.893047,72.2177848 346.053047,82.8577848 352.213047,85.4177848 C347.813047,95.5777848 339.013047,108.217785 330.213047,107.817785 C326.133047,107.657785 324.133047,102.457785 326.693047,95.1777848 C332.293047,99.6577848 337.653047,97.6577848 341.413047,92.7777848 C344.613047,88.6977848 345.413047,83.9777848 344.053047,82.0577848 C342.773047,80.2977848 341.333047,79.1777848 339.333047,77.9777848 C335.333047,75.6577848 327.173047,80.1377848 322.133047,90.0577848 C316.933047,100.297785 320.373047,110.217785 330.533047,110.057785 C340.053047,109.897785 348.693047,99.8177848 355.333047,85.8977848 C357.813047,85.8977848 361.413047,85.0977848 364.933047,82.8577848 C361.493047,86.6977848 356.693047,92.6177848 355.013047,97.9777848 C353.013047,104.457785 355.413047,109.897785 361.493047,110.217785 C365.893047,110.457785 370.693047,106.777785 372.693047,101.977785 Z M327.413047,93.4177848 C327.653047,93.0177848 327.813047,92.4577848 328.053047,92.0577848 C331.733047,84.6977848 338.293047,79.6577848 340.053047,81.1777848 C341.093047,82.0577848 339.413047,86.2177848 336.853047,89.4977848 C334.453047,92.5377848 331.333047,95.8177848 327.413047,93.4177848 Z M399.413047,109.657785 C420.853047,102.537785 435.093047,79.1777848 427.733047,66.3777848 C424.773047,61.1777848 420.773047,58.5377848 415.653047,59.3377848 C410.453047,60.1377848 406.453047,63.3377848 400.933047,64.0577848 C399.893047,64.2177848 399.813047,64.6977848 400.133047,65.5777848 C400.613047,66.7777848 402.213047,68.7777848 405.333047,68.9377848 C399.813047,77.1777848 393.173047,89.6577848 390.693047,97.1777848 C389.013047,102.377785 389.413047,103.577785 390.933047,105.657785 C392.053047,107.257785 393.333047,108.297785 394.293047,109.097785 C395.653047,110.217785 397.093047,110.457785 399.413047,109.657785 Z M394.693047,101.657785 C397.013047,94.2977848 403.493047,83.6577848 407.493047,76.5377848 C409.493047,73.0177848 409.973047,70.1377848 409.573047,68.1377848 C415.173047,66.2977848 421.013047,62.0577848 423.813047,66.5377848 C428.533047,74.0577848 418.453047,96.9377848 396.613047,105.257785 C394.213047,106.137785 393.653047,105.017785 394.693047,101.657785 Z M445.173047,77.6577848 C446.213047,76.5377848 446.773047,74.3777848 445.733047,72.2977848 C444.693047,70.1377848 442.373047,69.1777848 441.093047,70.5377848 C439.813047,71.8977848 439.413047,74.2977848 440.693047,76.4577848 C441.893047,78.5377848 444.133047,78.7777848 445.173047,77.6577848 Z M432.693047,110.217785 C437.173047,110.217785 442.213047,106.857785 444.613047,101.897785 C445.573047,99.8977848 445.813047,98.2177848 445.173047,96.9377848 C444.853047,96.2977848 444.293047,96.2177848 443.893047,96.9377848 C441.493047,102.457785 437.093047,107.737785 433.493047,107.897785 C430.933047,108.057785 430.773047,104.937785 432.693047,100.297785 C434.373047,96.2977848 437.733047,90.8577848 439.413047,87.3377848 C441.333047,83.3377848 440.693047,79.8977848 439.493047,78.6177848 C438.853047,77.8977848 438.293047,78.1377848 437.573047,79.0977848 C434.613047,83.2577848 429.333047,92.6977848 427.333047,98.5377848 C425.093047,105.097785 426.613047,110.217785 432.693047,110.217785 Z M449.733047,109.817785 C457.413047,97.6577848 464.693047,89.9777848 468.693047,84.9377848 C471.253047,81.7377848 472.213047,79.6577848 471.973047,77.9777848 C471.813047,76.9377848 471.333047,76.7777848 470.453047,77.6577848 C465.013047,83.2577848 454.373047,97.3377848 448.693047,106.697785 C449.813047,97.9777848 451.413047,93.4977848 452.853047,87.3377848 C453.973047,82.4577848 453.573047,79.4977848 450.933047,77.2577848 C450.293047,76.6977848 449.653047,77.0177848 449.333047,77.8977848 C446.613047,86.2177848 444.453047,97.6577848 444.133047,103.257785 C443.893047,107.497785 445.013047,109.097785 448.133047,110.617785 C448.933047,111.017785 449.333047,110.457785 449.733047,109.817785 Z M485.253047,77.6577848 C486.293047,76.5377848 486.853047,74.3777848 485.813047,72.2977848 C484.773047,70.1377848 482.453047,69.1777848 481.173047,70.5377848 C479.893047,71.8977848 479.493047,74.2977848 480.773047,76.4577848 C481.973047,78.5377848 484.213047,78.7777848 485.253047,77.6577848 Z M472.773047,110.217785 C477.253047,110.217785 482.293047,106.857785 484.693047,101.897785 C485.653047,99.8977848 485.893047,98.2177848 485.253047,96.9377848 C484.933047,96.2977848 484.373047,96.2177848 483.973047,96.9377848 C481.573047,102.457785 477.173047,107.737785 473.573047,107.897785 C471.013047,108.057785 470.853047,104.937785 472.773047,100.297785 C474.453047,96.2977848 477.813047,90.8577848 479.493047,87.3377848 C481.413047,83.3377848 480.773047,79.8977848 479.573047,78.6177848 C478.933047,77.8977848 478.373047,78.1377848 477.653047,79.0977848 C474.693047,83.2577848 469.413047,92.6977848 467.413047,98.5377848 C465.173047,105.097785 466.693047,110.217785 472.773047,110.217785 Z M517.013047,101.977785 C518.053047,99.8177848 517.973047,97.7377848 517.653047,97.0177848 C517.333047,96.3777848 516.773047,96.3777848 516.373047,97.0977848 C513.573047,102.617785 509.253047,107.977785 505.973047,108.137785 C503.253047,108.297785 503.333047,105.017785 505.493047,100.377785 C509.493047,91.8977848 517.173047,78.6977848 521.013047,71.8177848 C524.373047,65.8177848 524.613047,62.3777848 523.493047,59.7377848 C523.093047,58.6977848 522.373047,58.6177848 521.573047,59.7377848 C518.693047,63.8177848 512.613047,74.6977848 508.293047,82.9377848 C508.373047,79.9777848 506.773047,77.4977848 503.493047,77.4977848 C499.493047,77.4977848 493.093047,81.0977848 486.773047,90.3777848 C480.213047,99.9777848 481.653047,110.137785 489.093047,110.137785 C492.853047,110.137785 496.453047,107.177785 499.013047,103.977785 C499.013047,107.737785 501.173047,110.137785 505.493047,110.377785 C509.893047,110.617785 514.853047,106.377785 517.013047,101.977785 Z M489.973047,107.497785 C486.853047,107.417785 487.733047,100.457785 492.053047,93.5777848 C496.453047,86.5377848 502.293047,81.4977848 504.773047,81.5777848 C507.093047,81.6577848 505.893047,86.6977848 501.253047,95.5777848 C497.493047,102.857785 493.173047,107.577785 489.973047,107.497785 Z M526.613047,110.297785 C532.773047,110.217785 538.933047,106.537785 542.293047,101.657785 C543.733047,99.5777848 543.973047,97.3377848 543.653047,96.6977848 C543.333047,95.9777848 542.693047,95.9777848 542.293047,96.6177848 C538.853047,101.897785 533.013047,108.297785 526.373047,107.977785 C522.133047,107.737785 520.213047,102.697785 522.773047,95.3377848 C528.373047,99.8977848 533.733047,97.8177848 537.653047,93.0177848 C541.013047,88.9377848 541.653047,84.0577848 540.213047,82.1377848 C538.933047,80.3777848 537.493047,79.1777848 535.493047,77.9777848 C531.493047,75.6577848 523.333047,79.8177848 518.133047,90.1377848 C512.933047,100.457785 516.453047,110.457785 526.613047,110.297785 Z M523.493047,93.5777848 C523.653047,93.1777848 523.893047,92.6977848 524.133047,92.2177848 C527.893047,84.6177848 534.533047,79.8177848 536.213047,81.1777848 C537.333047,82.0577848 535.573047,86.2177848 533.013047,89.5777848 C530.693047,92.6177848 527.413047,96.0577848 523.493047,93.5777848 Z M561.493047,110.457785 C566.133047,110.457785 571.173047,106.377785 573.333047,101.897785 C574.453047,99.5777848 574.613047,97.7377848 574.053047,96.8577848 C573.653047,96.2177848 573.093047,96.2177848 572.693047,96.9377848 C569.653047,102.537785 565.733047,107.817785 562.453047,107.977785 C559.573047,108.137785 559.093047,104.377785 561.173047,99.7377848 C563.013047,95.5777848 566.933047,89.6577848 568.613047,86.1377848 C570.613047,81.9777848 568.133047,78.0577848 565.493047,77.6577848 C562.853047,77.2577848 557.413047,81.6577848 553.813047,85.4977848 C554.693047,82.6177848 554.773047,79.8977848 553.573047,77.8977848 C553.093047,77.0977848 552.453047,77.0177848 551.893047,77.8977848 C546.853047,85.3377848 540.693047,96.4577848 539.093047,101.497785 C537.813047,105.497785 538.293047,108.137785 539.893047,109.737785 C540.613047,110.457785 541.093047,110.137785 541.413047,109.417785 C544.853047,101.897785 548.373047,94.2177848 553.093047,89.0977848 C558.213047,83.4977848 562.853047,81.2577848 563.653047,81.5777848 C565.093047,82.2177848 558.053047,90.6977848 555.413047,98.5377848 C553.093047,105.497785 554.693047,110.457785 561.493047,110.457785 Z M605.413047,101.977785 C606.453047,99.8177848 606.373047,97.7377848 606.053047,97.0177848 C605.733047,96.3777848 605.173047,96.3777848 604.773047,97.0977848 C601.973047,102.617785 597.653047,107.977785 594.373047,108.137785 C591.653047,108.297785 591.733047,105.017785 593.893047,100.377785 C597.893047,91.8977848 605.573047,78.6977848 609.413047,71.8177848 C612.773047,65.8177848 613.013047,62.3777848 611.893047,59.7377848 C611.493047,58.6977848 610.773047,58.6177848 609.973047,59.7377848 C607.093047,63.8177848 601.013047,74.6977848 596.693047,82.9377848 C596.773047,79.9777848 595.173047,77.4977848 591.893047,77.4977848 C587.893047,77.4977848 581.493047,81.0977848 575.173047,90.3777848 C568.613047,99.9777848 570.053047,110.137785 577.493047,110.137785 C581.253047,110.137785 584.853047,107.177785 587.413047,103.977785 C587.413047,107.737785 589.573047,110.137785 593.893047,110.377785 C598.293047,110.617785 603.253047,106.377785 605.413047,101.977785 Z M578.373047,107.497785 C575.253047,107.417785 576.133047,100.457785 580.453047,93.5777848 C584.853047,86.5377848 590.693047,81.4977848 593.173047,81.5777848 C595.493047,81.6577848 594.293047,86.6977848 589.653047,95.5777848 C585.893047,102.857785 581.573047,107.577785 578.373047,107.497785 Z M616.373047,109.737785 C622.293047,107.737785 627.333047,99.6577848 629.013047,92.8577848 C629.813047,92.7777848 630.613047,92.4577848 631.173047,91.8177848 C631.493047,91.4177848 631.493047,91.0177848 630.933047,91.0177848 C630.293047,91.0177848 629.813047,91.1777848 629.333047,91.1777848 C629.413047,90.5377848 629.413047,89.9777848 629.493047,89.3377848 C629.973047,83.5777848 627.573047,83.0177848 625.733047,80.5377848 C624.133047,78.3777848 622.773047,77.6577848 620.293047,77.8177848 C615.493047,78.1377848 610.613047,82.7777848 607.573047,88.2177848 C603.973047,94.6177848 602.773047,101.577785 606.293047,106.217785 C609.493047,110.377785 613.493047,110.697785 616.373047,109.737785 Z M624.293047,89.6577848 C623.013047,88.4577848 622.133047,86.1377848 622.533047,83.9777848 C622.933047,81.6577848 624.533047,81.1777848 624.933047,83.7377848 C625.173047,85.1777848 624.933047,87.1777848 624.293047,89.6577848 Z M609.893047,106.537785 C607.813047,104.777785 609.013047,97.4177848 612.373047,91.3377848 C614.053047,88.2977848 616.373047,85.6577848 618.533047,83.8177848 C618.613047,86.7777848 620.533047,89.5777848 622.213047,90.8577848 C622.693047,91.2577848 623.173047,91.5777848 623.733047,91.8177848 C623.093047,93.7377848 622.133047,95.9777848 620.933047,98.2177848 C617.013047,105.577785 612.133047,108.377785 609.893047,106.537785 Z M642.453047,110.297785 C648.133047,110.057785 653.573047,107.017785 656.613047,101.497785 C657.973047,99.0177848 658.053047,96.9377848 657.733047,96.2177848 C657.413047,95.5777848 656.613047,95.3377848 656.213047,96.2177848 C654.213047,100.537785 650.853047,105.337785 645.493047,107.337785 C648.373047,105.417785 648.933047,102.057785 649.093047,98.9377848 C649.333047,93.4177848 647.813047,87.1777848 648.373047,79.8177848 C648.693047,79.2577848 648.933047,78.7777848 649.253047,78.2977848 C650.293047,76.4577848 650.693047,75.5777848 649.893047,74.7777848 C649.173047,74.0577848 647.333047,74.3777848 645.573047,75.9777848 C643.893047,77.4977848 643.093047,79.0177848 642.693047,82.1377848 C640.373047,86.2177848 636.773047,91.4177848 633.493047,95.8977848 C633.413047,95.2577848 633.413047,94.6177848 633.333047,93.9777848 C633.253047,92.6977848 632.613047,92.3777848 631.653047,93.1777848 C628.933047,95.4177848 628.693047,100.697785 630.613047,104.297785 C633.333047,109.257785 637.813047,110.457785 642.453047,110.297785 Z M634.213047,100.217785 C637.253047,95.8977848 640.213047,91.4977848 642.533047,87.2577848 C642.853047,93.6577848 644.053047,106.217785 640.373047,107.337785 C637.733047,108.137785 635.413047,104.857785 634.213047,100.217785 Z" id="SupeDividendos" fill-rule="nonzero"></path>
        </g>
    </g>
</svg>